<svg width="41" height="41" viewBox="0 0 41 41" fill="none" xmlns="http://www.w3.org/2000/svg">
<path d="M34.6855 4.41452H5.67584C4.97819 4.41452 4.41455 4.97816 4.41455 5.67581V34.6855C4.41455 35.3832 4.97819 35.9468 5.67584 35.9468H34.6855C35.3832 35.9468 35.9468 35.3832 35.9468 34.6855V5.67581C35.9468 4.97816 35.3832 4.41452 34.6855 4.41452ZM31.0436 13.618H28.5249C26.5502 13.618 26.1679 14.5561 26.1679 15.9356V18.9746H30.882L30.2671 23.732H26.1679V35.9468H21.2528V23.7359H17.1418V18.9746H21.2528V15.4666C21.2528 11.395 23.7399 9.1759 27.374 9.1759C29.1161 9.1759 30.61 9.30597 31.0475 9.36509V13.618H31.0436Z" fill="#5E5E5E"/>
</svg>
