<svg width="41" height="41" viewBox="0 0 41 41" fill="none" xmlns="http://www.w3.org/2000/svg">
<path d="M20.6036 15.3406C17.7105 15.3406 15.3495 17.7015 15.3495 20.5946C15.3495 23.4877 17.7105 25.8487 20.6036 25.8487C23.4967 25.8487 25.8577 23.4877 25.8577 20.5946C25.8577 17.7015 23.4967 15.3406 20.6036 15.3406ZM36.3619 20.5946C36.3619 18.4189 36.3816 16.2629 36.2594 14.0911C36.1372 11.5685 35.5617 9.32972 33.7171 7.48508C31.8685 5.6365 29.6336 5.06498 27.1111 4.94279C24.9353 4.82061 22.7793 4.84031 20.6075 4.84031C18.4318 4.84031 16.2758 4.82061 14.104 4.94279C11.5814 5.06498 9.34263 5.64045 7.49799 7.48508C5.64941 9.33366 5.07789 11.5685 4.9557 14.0911C4.83352 16.2668 4.85322 18.4228 4.85322 20.5946C4.85322 22.7664 4.83352 24.9264 4.9557 27.0982C5.07789 29.6207 5.65335 31.8595 7.49799 33.7042C9.34657 35.5528 11.5814 36.1243 14.104 36.2465C16.2797 36.3687 18.4357 36.3489 20.6075 36.3489C22.7833 36.3489 24.9393 36.3687 27.1111 36.2465C29.6336 36.1243 31.8724 35.5488 33.7171 33.7042C35.5657 31.8556 36.1372 29.6207 36.2594 27.0982C36.3855 24.9264 36.3619 22.7704 36.3619 20.5946ZM20.6036 28.6787C16.13 28.6787 12.5195 25.0683 12.5195 20.5946C12.5195 16.121 16.13 12.5105 20.6036 12.5105C25.0772 12.5105 28.6877 16.121 28.6877 20.5946C28.6877 25.0683 25.0772 28.6787 20.6036 28.6787ZM29.0188 14.0674C27.9743 14.0674 27.1308 13.224 27.1308 12.1795C27.1308 11.1349 27.9743 10.2915 29.0188 10.2915C30.0633 10.2915 30.9068 11.1349 30.9068 12.1795C30.9071 12.4275 30.8585 12.6731 30.7637 12.9023C30.6689 13.1315 30.5299 13.3398 30.3545 13.5152C30.1791 13.6905 29.9708 13.8296 29.7416 13.9244C29.5124 14.0191 29.2668 14.0678 29.0188 14.0674Z" fill="#5E5E5E"/>
</svg>
