<svg width="294" height="65" viewBox="0 0 294 65" fill="none" xmlns="http://www.w3.org/2000/svg">
<path d="M47.7176 11.8396C47.5018 11.8396 47.2861 11.7857 47.0973 11.6778C41.9191 9.0078 37.4422 7.87508 32.0753 7.87508C26.7353 7.87508 21.665 9.14265 17.0532 11.6778C16.406 12.0284 15.5969 11.7857 15.2193 11.1384C14.8687 10.4911 15.1114 9.65507 15.7587 9.30447C20.775 6.58055 26.2768 5.17813 32.0753 5.17813C37.8198 5.17813 42.8361 6.4457 48.3379 9.2775C49.0121 9.6281 49.2548 10.4372 48.9042 11.0845C48.6615 11.5699 48.203 11.8396 47.7176 11.8396ZM9.12421 25.9986C8.85451 25.9986 8.58482 25.9177 8.34209 25.7559C7.72179 25.3244 7.58694 24.4883 8.01846 23.868C10.6884 20.0923 14.0866 17.1256 18.132 15.049C26.6005 10.6799 37.4422 10.6529 45.9376 15.022C49.983 17.0987 53.3812 20.0383 56.0512 23.7871C56.4827 24.3804 56.3478 25.2435 55.7275 25.675C55.1072 26.1065 54.2712 25.9716 53.8397 25.3513C51.4124 21.9532 48.3379 19.2832 44.697 17.4223C36.9568 13.4578 27.0589 13.4578 19.3457 17.4493C15.6778 19.3371 12.6033 22.0341 10.176 25.4322C9.96026 25.8098 9.55572 25.9986 9.12421 25.9986ZM25.9802 58.5508C25.6296 58.5508 25.2789 58.416 25.0362 58.1463C22.6899 55.7999 21.4223 54.2896 19.6153 51.0263C17.7545 47.7091 16.7836 43.6636 16.7836 39.3215C16.7836 31.3116 23.6338 24.785 32.0483 24.785C40.4628 24.785 47.313 31.3116 47.313 39.3215C47.313 40.0767 46.7197 40.67 45.9646 40.67C45.2094 40.67 44.6161 40.0767 44.6161 39.3215C44.6161 32.7949 38.9795 27.4819 32.0483 27.4819C25.1171 27.4819 19.4805 32.7949 19.4805 39.3215C19.4805 43.2052 20.3435 46.7921 21.9887 49.7048C23.7147 52.8063 24.9014 54.1278 26.978 56.2314C27.4904 56.7708 27.4904 57.6069 26.978 58.1463C26.6814 58.416 26.3308 58.5508 25.9802 58.5508ZM45.3173 53.5615C42.1079 53.5615 39.2761 52.7524 36.9567 51.1612C32.9383 48.4372 30.538 44.0142 30.538 39.3215C30.538 38.5664 31.1313 37.9731 31.8865 37.9731C32.6416 37.9731 33.235 38.5664 33.235 39.3215C33.235 43.1242 35.1768 46.7112 38.467 48.9227C40.3819 50.2172 42.6203 50.8375 45.3173 50.8375C45.9646 50.8375 47.0433 50.7566 48.1221 50.5678C48.8503 50.433 49.5515 50.9184 49.6864 51.6736C49.8212 52.4018 49.3358 53.103 48.5806 53.2378C47.0433 53.5345 45.6949 53.5615 45.3173 53.5615ZM39.8964 59.1172C39.7885 59.1172 39.6537 59.0902 39.5458 59.0632C35.2577 57.8766 32.4528 56.2854 29.5132 53.3996C25.7374 49.6509 23.6608 44.6615 23.6608 39.3215C23.6608 34.9525 27.3826 31.3925 31.9674 31.3925C36.5522 31.3925 40.274 34.9525 40.274 39.3215C40.274 42.2073 42.7822 44.5536 45.8837 44.5536C48.9852 44.5536 51.4933 42.2073 51.4933 39.3215C51.4933 29.154 42.7282 20.9014 31.9404 20.9014C24.2811 20.9014 17.269 25.1625 14.1136 31.7701C13.0618 33.9546 12.5224 36.5167 12.5224 39.3215C12.5224 41.4252 12.7112 44.7424 14.3293 49.0575C14.599 49.7588 14.2484 50.5409 13.5472 50.7836C12.846 51.0533 12.0639 50.6757 11.8212 50.0015C10.4997 46.4685 9.85238 42.9624 9.85238 39.3215C9.85238 36.0852 10.4727 33.1455 11.6863 30.5834C15.2733 23.0589 23.2293 18.1774 31.9404 18.1774C44.2116 18.1774 54.1903 27.6437 54.1903 39.2946C54.1903 43.6636 50.4685 47.2236 45.8837 47.2236C41.2988 47.2236 37.577 43.6636 37.577 39.2946C37.577 36.4088 35.0689 34.0625 31.9674 34.0625C28.8659 34.0625 26.3577 36.4088 26.3577 39.2946C26.3577 43.9064 28.1377 48.2215 31.401 51.4578C33.9631 53.993 36.4174 55.3954 40.2201 56.4472C40.9482 56.636 41.3528 57.3911 41.164 58.0923C41.0291 58.7126 40.4628 59.1172 39.8964 59.1172Z" fill="#050443"/>
<path d="M70.1771 50.6844H66.6681L65.6781 52.5104H64.8641L69.0111 44.9204H69.8801L71.3321 52.5104H70.5181L70.1771 50.6844ZM70.0561 50.0684L69.2751 45.8774L66.9981 50.0684H70.0561ZM80.6741 44.8214L80.5641 45.4374H77.1651L76.6591 48.3414H79.5191L79.4091 48.9464H76.5491L75.9221 52.5104H75.1521L76.5051 44.8214H80.6741ZM81.8639 47.7034C82.1059 47.2854 82.4212 46.9627 82.8099 46.7354C83.1985 46.5081 83.6495 46.3944 84.1629 46.3944L84.0199 47.1974H83.7999C83.2719 47.1974 82.8172 47.3331 82.4359 47.6044C82.0545 47.8757 81.7905 48.3231 81.6439 48.9464L81.0169 52.5104H80.2469L81.3029 46.5044H82.0729L81.8639 47.7034ZM86.5422 52.5984C86.0435 52.5984 85.6035 52.4994 85.2222 52.3014C84.8409 52.0961 84.5439 51.8101 84.3312 51.4434C84.1259 51.0694 84.0232 50.6331 84.0232 50.1344C84.0232 49.4597 84.1772 48.8401 84.4852 48.2754C84.7932 47.7034 85.2222 47.2524 85.7722 46.9224C86.3222 46.5851 86.9345 46.4164 87.6092 46.4164C88.1079 46.4164 88.5479 46.5191 88.9292 46.7244C89.3105 46.9224 89.6075 47.2084 89.8202 47.5824C90.0329 47.9491 90.1392 48.3817 90.1392 48.8804C90.1392 49.5624 89.9815 50.1857 89.6662 50.7504C89.3509 51.3151 88.9182 51.7661 88.3682 52.1034C87.8255 52.4334 87.2169 52.5984 86.5422 52.5984ZM86.6302 51.9494C87.1509 51.9494 87.6165 51.8101 88.0272 51.5314C88.4452 51.2527 88.7679 50.8824 88.9952 50.4204C89.2299 49.9584 89.3472 49.4597 89.3472 48.9244C89.3472 48.3231 89.1712 47.8647 88.8192 47.5494C88.4745 47.2341 88.0345 47.0764 87.4992 47.0764C86.9785 47.0764 86.5129 47.2157 86.1022 47.4944C85.6989 47.7731 85.3835 48.1434 85.1562 48.6054C84.9289 49.0674 84.8152 49.5661 84.8152 50.1014C84.8152 50.6954 84.9875 51.1537 85.3322 51.4764C85.6769 51.7917 86.1095 51.9494 86.6302 51.9494ZM94.5348 46.3944C95.1508 46.3944 95.6422 46.5631 96.0088 46.9004C96.3828 47.2304 96.5698 47.7144 96.5698 48.3524C96.5698 48.5871 96.5515 48.7997 96.5148 48.9904L95.8878 52.5104H95.1288L95.7338 49.0784C95.7632 48.9097 95.7778 48.7301 95.7778 48.5394C95.7778 48.0554 95.6458 47.6887 95.3818 47.4394C95.1178 47.1901 94.7475 47.0654 94.2708 47.0654C93.6915 47.0654 93.1965 47.2487 92.7858 47.6154C92.3752 47.9821 92.1075 48.5211 91.9828 49.2324V49.1994L91.3998 52.5104H90.6298L91.6858 46.5044H92.4558L92.2688 47.5384C92.5255 47.1717 92.8518 46.8894 93.2478 46.6914C93.6438 46.4934 94.0728 46.3944 94.5348 46.3944ZM98.5368 50.8824C98.5148 51.0144 98.5038 51.1281 98.5038 51.2234C98.5038 51.4581 98.5661 51.6231 98.6908 51.7184C98.8228 51.8064 99.0354 51.8504 99.3288 51.8504H100.033L99.9118 52.5104H99.0868C98.6321 52.5104 98.2911 52.4224 98.0638 52.2464C97.8364 52.0704 97.7228 51.7807 97.7228 51.3774C97.7228 51.2161 97.7374 51.0511 97.7668 50.8824L98.4268 47.1534H97.5908L97.7118 46.5044H98.5478L98.8118 44.9974H99.5818L99.3178 46.5044H100.979L100.858 47.1534H99.1968L98.5368 50.8824ZM105.362 48.1104L105.252 48.7594H100.973L101.083 48.1104H105.362ZM109.9 46.4164C110.406 46.4164 110.838 46.5154 111.198 46.7134C111.557 46.9041 111.828 47.1681 112.012 47.5054C112.202 47.8427 112.298 48.2277 112.298 48.6604C112.298 48.8584 112.283 49.0344 112.254 49.1884C112.21 49.4084 112.166 49.6064 112.122 49.7824H107.139C107.117 49.9217 107.106 50.0537 107.106 50.1784C107.106 50.7431 107.274 51.1794 107.612 51.4874C107.956 51.7954 108.393 51.9494 108.921 51.9494C109.427 51.9494 109.87 51.8284 110.252 51.5864C110.633 51.3444 110.912 51.0181 111.088 50.6074H111.913C111.663 51.1941 111.264 51.6744 110.714 52.0484C110.171 52.4151 109.537 52.5984 108.811 52.5984C108.063 52.5984 107.461 52.3857 107.007 51.9604C106.559 51.5277 106.336 50.9411 106.336 50.2004C106.336 49.9804 106.358 49.7494 106.402 49.5074C106.512 48.8841 106.732 48.3377 107.062 47.8684C107.399 47.3991 107.813 47.0397 108.305 46.7904C108.796 46.5411 109.328 46.4164 109.9 46.4164ZM111.462 49.2104C111.498 49.0051 111.517 48.8327 111.517 48.6934C111.517 48.1727 111.352 47.7731 111.022 47.4944C110.692 47.2157 110.27 47.0764 109.757 47.0764C109.383 47.0764 109.023 47.1571 108.679 47.3184C108.334 47.4797 108.033 47.7217 107.777 48.0444C107.52 48.3671 107.344 48.7557 107.249 49.2104H111.462ZM116.644 46.3944C117.26 46.3944 117.751 46.5631 118.118 46.9004C118.492 47.2304 118.679 47.7144 118.679 48.3524C118.679 48.5871 118.66 48.7997 118.624 48.9904L117.997 52.5104H117.238L117.843 49.0784C117.872 48.9097 117.887 48.7301 117.887 48.5394C117.887 48.0554 117.755 47.6887 117.491 47.4394C117.227 47.1901 116.856 47.0654 116.38 47.0654C115.8 47.0654 115.305 47.2487 114.895 47.6154C114.484 47.9821 114.216 48.5211 114.092 49.2324V49.1994L113.509 52.5104H112.739L113.795 46.5044H114.565L114.378 47.5384C114.634 47.1717 114.961 46.8894 115.357 46.6914C115.753 46.4934 116.182 46.3944 116.644 46.3944ZM119.545 49.4964C119.655 48.8804 119.875 48.3414 120.205 47.8794C120.535 47.4101 120.942 47.0507 121.426 46.8014C121.91 46.5447 122.427 46.4164 122.977 46.4164C123.505 46.4164 123.956 46.5447 124.33 46.8014C124.712 47.0581 124.968 47.3917 125.1 47.8024L125.705 44.3704H126.475L125.034 52.5104H124.264L124.506 51.1684C124.242 51.5864 123.879 51.9311 123.417 52.2024C122.955 52.4664 122.442 52.5984 121.877 52.5984C121.151 52.5984 120.568 52.3821 120.128 51.9494C119.696 51.5094 119.479 50.9191 119.479 50.1784C119.479 49.9657 119.501 49.7384 119.545 49.4964ZM124.792 49.5074C124.829 49.3021 124.847 49.1187 124.847 48.9574C124.847 48.3854 124.675 47.9307 124.33 47.5934C123.986 47.2561 123.538 47.0874 122.988 47.0874C122.563 47.0874 122.163 47.1827 121.789 47.3734C121.423 47.5641 121.111 47.8427 120.854 48.2094C120.598 48.5687 120.425 48.9977 120.337 49.4964C120.301 49.7164 120.282 49.9034 120.282 50.0574C120.282 50.6367 120.451 51.0951 120.788 51.4324C121.133 51.7624 121.58 51.9274 122.13 51.9274C122.541 51.9274 122.933 51.8284 123.307 51.6304C123.689 51.4324 124.008 51.1501 124.264 50.7834C124.528 50.4167 124.704 49.9914 124.792 49.5074ZM140.068 44.8214L136.526 52.5104H135.668L134.898 45.9764L131.763 52.5104L130.916 52.5214L130.146 44.8214H130.982L131.543 51.5204L134.7 44.8214H135.569L136.284 51.5424L139.232 44.8214H140.068ZM143.226 46.4164C143.732 46.4164 144.165 46.5154 144.524 46.7134C144.884 46.9041 145.155 47.1681 145.338 47.5054C145.529 47.8427 145.624 48.2277 145.624 48.6604C145.624 48.8584 145.61 49.0344 145.58 49.1884C145.536 49.4084 145.492 49.6064 145.448 49.7824H140.465C140.443 49.9217 140.432 50.0537 140.432 50.1784C140.432 50.7431 140.601 51.1794 140.938 51.4874C141.283 51.7954 141.719 51.9494 142.247 51.9494C142.753 51.9494 143.197 51.8284 143.578 51.5864C143.96 51.3444 144.238 51.0181 144.414 50.6074H145.239C144.99 51.1941 144.59 51.6744 144.04 52.0484C143.498 52.4151 142.863 52.5984 142.137 52.5984C141.389 52.5984 140.788 52.3857 140.333 51.9604C139.886 51.5277 139.662 50.9411 139.662 50.2004C139.662 49.9804 139.684 49.7494 139.728 49.5074C139.838 48.8841 140.058 48.3377 140.388 47.8684C140.726 47.3991 141.14 47.0397 141.631 46.7904C142.123 46.5411 142.654 46.4164 143.226 46.4164ZM144.788 49.2104C144.825 49.0051 144.843 48.8327 144.843 48.6934C144.843 48.1727 144.678 47.7731 144.348 47.4944C144.018 47.2157 143.597 47.0764 143.083 47.0764C142.709 47.0764 142.35 47.1571 142.005 47.3184C141.661 47.4797 141.36 47.7217 141.103 48.0444C140.847 48.3671 140.671 48.7557 140.575 49.2104H144.788ZM147.66 47.8354C147.924 47.4174 148.287 47.0764 148.749 46.8124C149.211 46.5484 149.721 46.4164 150.278 46.4164C151.004 46.4164 151.583 46.6327 152.016 47.0654C152.456 47.4907 152.676 48.0701 152.676 48.8034C152.676 49.0234 152.654 49.2544 152.61 49.4964C152.5 50.1124 152.28 50.6551 151.95 51.1244C151.62 51.5937 151.213 51.9567 150.729 52.2134C150.252 52.4701 149.739 52.5984 149.189 52.5984C148.624 52.5984 148.159 52.4701 147.792 52.2134C147.425 51.9494 147.18 51.6084 147.055 51.1904L146.824 52.5104H146.065L147.506 44.3704H148.265L147.66 47.8354ZM151.829 49.4964C151.866 49.2764 151.884 49.0894 151.884 48.9354C151.884 48.3561 151.712 47.9051 151.367 47.5824C151.03 47.2524 150.582 47.0874 150.025 47.0874C149.614 47.0874 149.222 47.1864 148.848 47.3844C148.474 47.5824 148.155 47.8647 147.891 48.2314C147.627 48.5981 147.451 49.0234 147.363 49.5074C147.326 49.7127 147.308 49.8961 147.308 50.0574C147.308 50.6294 147.48 51.0841 147.825 51.4214C148.17 51.7587 148.617 51.9274 149.167 51.9274C149.592 51.9274 149.988 51.8321 150.355 51.6414C150.729 51.4434 151.044 51.1611 151.301 50.7944C151.565 50.4204 151.741 49.9877 151.829 49.4964ZM159.713 44.8214C160.828 44.8214 161.686 45.0817 162.287 45.6024C162.888 46.1231 163.189 46.8564 163.189 47.8024C163.189 48.0591 163.16 48.3524 163.101 48.6824C162.962 49.4744 162.679 50.1601 162.254 50.7394C161.829 51.3114 161.282 51.7514 160.615 52.0594C159.955 52.3601 159.2 52.5104 158.349 52.5104H156.072L157.425 44.8214H159.713ZM158.459 51.9054C159.53 51.9054 160.395 51.6231 161.055 51.0584C161.715 50.4864 162.133 49.6944 162.309 48.6824C162.36 48.4184 162.386 48.1544 162.386 47.8904C162.386 47.1131 162.151 46.5117 161.682 46.0864C161.213 45.6611 160.516 45.4484 159.592 45.4484H158.085L156.952 51.9054H158.459ZM167.183 46.4164C167.689 46.4164 168.121 46.5154 168.481 46.7134C168.84 46.9041 169.111 47.1681 169.295 47.5054C169.485 47.8427 169.581 48.2277 169.581 48.6604C169.581 48.8584 169.566 49.0344 169.537 49.1884C169.493 49.4084 169.449 49.6064 169.405 49.7824H164.422C164.4 49.9217 164.389 50.0537 164.389 50.1784C164.389 50.7431 164.557 51.1794 164.895 51.4874C165.239 51.7954 165.676 51.9494 166.204 51.9494C166.71 51.9494 167.153 51.8284 167.535 51.5864C167.916 51.3444 168.195 51.0181 168.371 50.6074H169.196C168.946 51.1941 168.547 51.6744 167.997 52.0484C167.454 52.4151 166.82 52.5984 166.094 52.5984C165.346 52.5984 164.744 52.3857 164.29 51.9604C163.842 51.5277 163.619 50.9411 163.619 50.2004C163.619 49.9804 163.641 49.7494 163.685 49.5074C163.795 48.8841 164.015 48.3377 164.345 47.8684C164.682 47.3991 165.096 47.0397 165.588 46.7904C166.079 46.5411 166.611 46.4164 167.183 46.4164ZM168.745 49.2104C168.781 49.0051 168.8 48.8327 168.8 48.6934C168.8 48.1727 168.635 47.7731 168.305 47.4944C167.975 47.2157 167.553 47.0764 167.04 47.0764C166.666 47.0764 166.306 47.1571 165.962 47.3184C165.617 47.4797 165.316 47.7217 165.06 48.0444C164.803 48.3671 164.627 48.7557 164.532 49.2104H168.745ZM172.298 51.7294L175.235 46.5044H176.071L172.595 52.5104H171.704L170.362 46.5044H171.187L172.298 51.7294ZM179.381 46.4164C179.887 46.4164 180.32 46.5154 180.679 46.7134C181.038 46.9041 181.31 47.1681 181.493 47.5054C181.684 47.8427 181.779 48.2277 181.779 48.6604C181.779 48.8584 181.764 49.0344 181.735 49.1884C181.691 49.4084 181.647 49.6064 181.603 49.7824H176.62C176.598 49.9217 176.587 50.0537 176.587 50.1784C176.587 50.7431 176.756 51.1794 177.093 51.4874C177.438 51.7954 177.874 51.9494 178.402 51.9494C178.908 51.9494 179.352 51.8284 179.733 51.5864C180.114 51.3444 180.393 51.0181 180.569 50.6074H181.394C181.145 51.1941 180.745 51.6744 180.195 52.0484C179.652 52.4151 179.018 52.5984 178.292 52.5984C177.544 52.5984 176.943 52.3857 176.488 51.9604C176.041 51.5277 175.817 50.9411 175.817 50.2004C175.817 49.9804 175.839 49.7494 175.883 49.5074C175.993 48.8841 176.213 48.3377 176.543 47.8684C176.88 47.3991 177.295 47.0397 177.786 46.7904C178.277 46.5411 178.809 46.4164 179.381 46.4164ZM180.943 49.2104C180.98 49.0051 180.998 48.8327 180.998 48.6934C180.998 48.1727 180.833 47.7731 180.503 47.4944C180.173 47.2157 179.751 47.0764 179.238 47.0764C178.864 47.0764 178.505 47.1571 178.16 47.3184C177.815 47.4797 177.515 47.7217 177.258 48.0444C177.001 48.3671 176.825 48.7557 176.73 49.2104H180.943ZM184.431 44.3704L182.99 52.5104H182.22L183.661 44.3704H184.431ZM187.044 52.5984C186.545 52.5984 186.105 52.4994 185.724 52.3014C185.342 52.0961 185.045 51.8101 184.833 51.4434C184.627 51.0694 184.525 50.6331 184.525 50.1344C184.525 49.4597 184.679 48.8401 184.987 48.2754C185.295 47.7034 185.724 47.2524 186.274 46.9224C186.824 46.5851 187.436 46.4164 188.111 46.4164C188.609 46.4164 189.049 46.5191 189.431 46.7244C189.812 46.9224 190.109 47.2084 190.322 47.5824C190.534 47.9491 190.641 48.3817 190.641 48.8804C190.641 49.5624 190.483 50.1857 190.168 50.7504C189.852 51.3151 189.42 51.7661 188.87 52.1034C188.327 52.4334 187.718 52.5984 187.044 52.5984ZM187.132 51.9494C187.652 51.9494 188.118 51.8101 188.529 51.5314C188.947 51.2527 189.269 50.8824 189.497 50.4204C189.731 49.9584 189.849 49.4597 189.849 48.9244C189.849 48.3231 189.673 47.8647 189.321 47.5494C188.976 47.2341 188.536 47.0764 188.001 47.0764C187.48 47.0764 187.014 47.2157 186.604 47.4944C186.2 47.7731 185.885 48.1434 185.658 48.6054C185.43 49.0674 185.317 49.5661 185.317 50.1014C185.317 50.6954 185.489 51.1537 185.834 51.4764C186.178 51.7917 186.611 51.9494 187.132 51.9494ZM192.726 47.8244C192.975 47.4211 193.331 47.0874 193.793 46.8234C194.262 46.5521 194.779 46.4164 195.344 46.4164C196.07 46.4164 196.649 46.6327 197.082 47.0654C197.522 47.4907 197.742 48.0737 197.742 48.8144C197.742 49.0271 197.72 49.2544 197.676 49.4964C197.566 50.1124 197.346 50.6551 197.016 51.1244C196.686 51.5937 196.279 51.9567 195.795 52.2134C195.318 52.4701 194.805 52.5984 194.255 52.5984C193.69 52.5984 193.225 52.4664 192.858 52.2024C192.491 51.9311 192.246 51.5937 192.121 51.1904L191.395 55.3484H190.625L192.187 46.5044H192.957L192.726 47.8244ZM196.895 49.4964C196.932 49.2764 196.95 49.0894 196.95 48.9354C196.95 48.3561 196.778 47.9051 196.433 47.5824C196.096 47.2524 195.648 47.0874 195.091 47.0874C194.68 47.0874 194.288 47.1864 193.914 47.3844C193.54 47.5824 193.221 47.8647 192.957 48.2314C192.693 48.5981 192.517 49.0234 192.429 49.5074C192.392 49.7127 192.374 49.8961 192.374 50.0574C192.374 50.6294 192.546 51.0841 192.891 51.4214C193.236 51.7587 193.683 51.9274 194.233 51.9274C194.658 51.9274 195.054 51.8321 195.421 51.6414C195.795 51.4434 196.11 51.1611 196.367 50.7944C196.631 50.4204 196.807 49.9877 196.895 49.4964ZM201.898 46.4164C202.404 46.4164 202.837 46.5154 203.196 46.7134C203.555 46.9041 203.827 47.1681 204.01 47.5054C204.201 47.8427 204.296 48.2277 204.296 48.6604C204.296 48.8584 204.281 49.0344 204.252 49.1884C204.208 49.4084 204.164 49.6064 204.12 49.7824H199.137C199.115 49.9217 199.104 50.0537 199.104 50.1784C199.104 50.7431 199.273 51.1794 199.61 51.4874C199.955 51.7954 200.391 51.9494 200.919 51.9494C201.425 51.9494 201.869 51.8284 202.25 51.5864C202.631 51.3444 202.91 51.0181 203.086 50.6074H203.911C203.662 51.1941 203.262 51.6744 202.712 52.0484C202.169 52.4151 201.535 52.5984 200.809 52.5984C200.061 52.5984 199.46 52.3857 199.005 51.9604C198.558 51.5277 198.334 50.9411 198.334 50.2004C198.334 49.9804 198.356 49.7494 198.4 49.5074C198.51 48.8841 198.73 48.3377 199.06 47.8684C199.397 47.3991 199.812 47.0397 200.303 46.7904C200.794 46.5411 201.326 46.4164 201.898 46.4164ZM203.46 49.2104C203.497 49.0051 203.515 48.8327 203.515 48.6934C203.515 48.1727 203.35 47.7731 203.02 47.4944C202.69 47.2157 202.268 47.0764 201.755 47.0764C201.381 47.0764 201.022 47.1571 200.677 47.3184C200.332 47.4797 200.032 47.7217 199.775 48.0444C199.518 48.3671 199.342 48.7557 199.247 49.2104H203.46ZM206.354 47.7034C206.596 47.2854 206.911 46.9627 207.3 46.7354C207.688 46.5081 208.139 46.3944 208.653 46.3944L208.51 47.1974H208.29C207.762 47.1974 207.307 47.3331 206.926 47.6044C206.544 47.8757 206.28 48.3231 206.134 48.9464L205.507 52.5104H204.737L205.793 46.5044H206.563L206.354 47.7034Z" fill="#050443"/>
<path d="M66.7181 42.132C67.0061 40.98 67.3661 39.696 67.7981 38.28C68.2301 36.864 68.7461 35.184 69.3461 33.24C69.9701 31.272 70.6901 28.944 71.5061 26.256C72.3221 23.568 73.2701 20.388 74.3501 16.716C74.3981 16.596 74.4461 16.392 74.4941 16.104C74.5661 15.792 74.6021 15.504 74.6021 15.24C74.6021 15 74.5541 14.808 74.4581 14.664C74.3861 14.496 74.2541 14.412 74.0621 14.412C73.4861 14.412 72.9341 14.64 72.4061 15.096C71.9021 15.528 71.4581 16.08 71.0741 16.752C70.7141 17.424 70.4261 18.132 70.2101 18.876C69.9941 19.596 69.8861 20.244 69.8861 20.82C69.8861 21.3 69.9461 21.72 70.0661 22.08C69.2741 22.08 68.7101 21.888 68.3741 21.504C68.0621 21.096 67.9061 20.604 67.9061 20.028C67.9061 19.212 68.1461 18.396 68.6261 17.58C69.1061 16.764 69.7181 16.02 70.4621 15.348C71.2061 14.652 71.9861 14.1 72.8021 13.692C73.6421 13.284 74.4101 13.08 75.1061 13.08C75.8261 13.08 76.4141 13.392 76.8701 14.016C77.3501 14.616 77.7341 15.456 78.0221 16.536C78.3101 17.592 78.5501 18.792 78.7421 20.136C78.9341 21.48 79.1141 22.872 79.2821 24.312C79.4261 25.512 79.5701 26.712 79.7141 27.912C79.8581 29.088 80.0021 30.216 80.1461 31.296C80.2901 32.352 80.4221 33.324 80.5421 34.212C80.6621 35.1 80.7701 35.832 80.8661 36.408C81.0341 35.28 81.2741 34.008 81.5861 32.592C81.9221 31.152 82.2821 29.664 82.6661 28.128C83.0741 26.568 83.4941 25.056 83.9261 23.592C84.3581 22.104 84.7541 20.748 85.1141 19.524C85.4981 18.276 85.8221 17.244 86.0861 16.428C86.3741 15.588 86.5661 15.06 86.6621 14.844C86.7821 14.532 87.0581 14.16 87.4901 13.728C87.9221 13.296 88.4021 13.08 88.9301 13.08C88.5221 14.184 88.0541 15.54 87.5261 17.148C87.0221 18.732 86.5061 20.46 85.9781 22.332C85.4501 24.18 84.9341 26.076 84.4301 28.02C83.9261 29.94 83.4701 31.8 83.0621 33.6C82.6781 35.4 82.3661 37.044 82.1261 38.532C81.9101 39.996 81.7901 41.196 81.7661 42.132C81.0221 42.132 80.4101 41.916 79.9301 41.484C79.4741 41.052 79.1501 40.296 78.9581 39.216C78.8381 38.592 78.6821 37.74 78.4901 36.66C78.3221 35.556 78.1301 34.332 77.9141 32.988C77.7221 31.644 77.5181 30.252 77.3021 28.812C77.0861 27.348 76.8701 25.92 76.6541 24.528C76.4621 23.136 76.2821 21.864 76.1141 20.712C75.9461 19.536 75.8021 18.564 75.6821 17.796C74.5301 21.948 73.5461 25.464 72.7301 28.344C71.9141 31.2 71.2181 33.54 70.6421 35.364C70.0901 37.164 69.5981 38.556 69.1661 39.54C68.7341 40.524 68.3261 41.196 67.9421 41.556C67.5581 41.94 67.1501 42.132 66.7181 42.132ZM87.7137 40.692C86.9697 40.692 86.3457 40.44 85.8417 39.936C85.3137 39.456 85.0497 38.712 85.0497 37.704C85.0497 36.84 85.2417 35.916 85.6257 34.932C86.0097 33.924 86.5377 32.94 87.2097 31.98C87.8817 30.996 88.6377 30.108 89.4777 29.316C90.3417 28.5 91.2417 27.852 92.1777 27.372C93.1377 26.892 94.0857 26.652 95.0217 26.652C95.9577 26.652 96.7377 26.904 97.3617 27.408C97.9857 27.888 98.2977 28.536 98.2977 29.352C98.2977 29.952 98.1297 30.36 97.7937 30.576C97.4817 30.792 97.0617 30.9 96.5337 30.9C96.5817 30.708 96.6177 30.504 96.6417 30.288C96.6897 30.048 96.7137 29.832 96.7137 29.64C96.7137 29.088 96.5817 28.62 96.3177 28.236C96.0537 27.828 95.5977 27.624 94.9497 27.624C94.2777 27.624 93.5937 27.864 92.8977 28.344C92.2017 28.8 91.5297 29.424 90.8817 30.216C90.2337 30.984 89.6577 31.824 89.1537 32.736C88.6497 33.648 88.2537 34.548 87.9657 35.436C87.6777 36.324 87.5337 37.116 87.5337 37.812C87.5337 38.748 87.8577 39.216 88.5057 39.216C89.0577 39.216 89.6577 38.964 90.3057 38.46C90.9537 37.932 91.6137 37.272 92.2857 36.48C92.9817 35.664 93.6417 34.824 94.2657 33.96C94.8897 33.096 95.4417 32.304 95.9217 31.584C96.0177 31.44 96.0777 31.368 96.1017 31.368C96.2457 31.392 96.4257 31.44 96.6417 31.512C96.8817 31.584 97.0857 31.68 97.2537 31.8C97.4217 31.92 97.5057 32.076 97.5057 32.268C97.5057 32.484 97.3977 32.784 97.1817 33.168C96.9657 33.528 96.7257 33.948 96.4617 34.428C96.1977 34.908 95.9577 35.4 95.7417 35.904C95.5257 36.384 95.4177 36.84 95.4177 37.272C95.4177 37.632 95.5137 37.992 95.7057 38.352C95.8977 38.688 96.2097 38.856 96.6417 38.856C97.2897 38.856 98.1417 38.388 99.1977 37.452C100.254 36.492 101.322 35.064 102.402 33.168L102.762 33.528C102.258 34.824 101.61 35.964 100.818 36.948C100.026 37.932 99.1737 38.7 98.2617 39.252C97.3737 39.804 96.4977 40.08 95.6337 40.08C94.7457 40.08 94.0857 39.816 93.6537 39.288C93.2457 38.76 93.0417 38.184 93.0417 37.56C93.0417 37.416 93.0537 37.26 93.0777 37.092C93.1017 36.9 93.1257 36.708 93.1497 36.516C92.1177 37.908 91.1697 38.952 90.3057 39.648C89.4657 40.344 88.6017 40.692 87.7137 40.692ZM102.097 40.368C101.641 40.368 101.281 39.984 101.017 39.216C100.753 38.448 100.621 37.584 100.621 36.624C100.621 35.472 100.813 34.104 101.197 32.52C101.581 30.936 102.085 29.268 102.709 27.516C103.333 25.764 104.029 24.048 104.797 22.368C105.589 20.688 106.393 19.164 107.209 17.796C108.025 16.428 108.793 15.336 109.513 14.52C110.233 13.704 110.857 13.296 111.385 13.296C111.817 13.296 112.117 13.56 112.285 14.088C112.477 14.592 112.573 15.084 112.573 15.564C112.573 16.236 112.417 17.052 112.105 18.012C111.817 18.972 111.409 20.004 110.881 21.108C110.353 22.188 109.741 23.256 109.045 24.312C108.349 25.368 107.593 26.34 106.777 27.228C105.961 28.092 105.133 28.776 104.293 29.28C104.005 29.976 103.753 30.756 103.537 31.62C103.345 32.484 103.201 33.336 103.105 34.176C103.009 34.992 102.961 35.724 102.961 36.372C102.961 36.636 102.961 36.864 102.961 37.056C102.985 37.248 103.009 37.428 103.033 37.596C103.369 36.612 103.729 35.664 104.113 34.752C104.521 33.816 104.953 32.964 105.409 32.196C105.865 31.404 106.345 30.72 106.849 30.144C107.377 29.544 107.929 29.088 108.505 28.776C109.081 28.44 109.693 28.272 110.341 28.272C111.013 28.272 111.541 28.44 111.925 28.776C112.333 29.088 112.621 29.496 112.789 30C112.981 30.48 113.077 30.984 113.077 31.512C113.077 32.256 112.945 32.976 112.681 33.672C112.441 34.368 112.189 35.04 111.925 35.688C111.661 36.336 111.529 36.96 111.529 37.56C111.529 38.04 111.625 38.388 111.817 38.604C112.033 38.82 112.297 38.928 112.609 38.928C113.161 38.928 113.773 38.664 114.445 38.136C115.141 37.608 115.825 36.912 116.497 36.048C117.169 35.16 117.745 34.2 118.225 33.168L118.693 33.6C118.189 34.776 117.577 35.844 116.857 36.804C116.137 37.74 115.345 38.484 114.481 39.036C113.617 39.588 112.717 39.864 111.781 39.864C110.965 39.864 110.341 39.648 109.909 39.216C109.501 38.784 109.297 38.244 109.297 37.596C109.297 37.092 109.393 36.528 109.585 35.904C109.777 35.28 109.957 34.644 110.125 33.996C110.317 33.348 110.413 32.736 110.413 32.16C110.413 31.536 110.281 31.092 110.017 30.828C109.753 30.564 109.429 30.432 109.045 30.432C108.445 30.432 107.905 30.672 107.425 31.152C106.945 31.632 106.501 32.256 106.093 33.024C105.709 33.768 105.337 34.56 104.977 35.4C104.641 36.24 104.317 37.044 104.005 37.812C103.693 38.556 103.381 39.168 103.069 39.648C102.757 40.128 102.433 40.368 102.097 40.368ZM104.761 27.876C105.433 27.348 106.081 26.676 106.705 25.86C107.353 25.044 107.953 24.18 108.505 23.268C109.057 22.332 109.549 21.42 109.981 20.532C110.413 19.644 110.749 18.84 110.989 18.12C111.229 17.4 111.349 16.86 111.349 16.5C111.349 16.38 111.337 16.308 111.313 16.284C111.289 16.236 111.253 16.212 111.205 16.212C111.037 16.212 110.689 16.548 110.161 17.22C109.657 17.868 109.069 18.744 108.397 19.848C107.725 20.952 107.065 22.2 106.417 23.592C105.769 24.984 105.217 26.412 104.761 27.876ZM118.751 40.152C117.719 40.152 116.987 39.828 116.555 39.18C116.123 38.556 115.907 37.788 115.907 36.876C115.907 36.132 116.027 35.364 116.267 34.572C116.507 33.78 116.819 33.036 117.203 32.34C117.611 31.644 118.055 31.08 118.535 30.648C119.039 30.216 119.543 30 120.047 30C120.167 30 120.287 30.024 120.407 30.072C120.551 30.096 120.683 30.132 120.803 30.18C120.587 30.372 120.323 30.732 120.011 31.26C119.723 31.764 119.447 32.352 119.183 33.024C118.919 33.672 118.691 34.32 118.499 34.968C118.331 35.616 118.247 36.168 118.247 36.624C118.247 37.344 118.367 37.872 118.607 38.208C118.847 38.52 119.159 38.676 119.543 38.676C120.047 38.676 120.647 38.412 121.343 37.884C122.039 37.332 122.723 36.636 123.395 35.796C122.723 35.244 122.195 34.524 121.811 33.636C121.451 32.724 121.271 31.8 121.271 30.864C121.271 30.072 121.403 29.328 121.667 28.632C121.955 27.936 122.363 27.384 122.891 26.976C123.419 26.544 124.055 26.328 124.799 26.328C125.783 26.328 126.443 26.592 126.779 27.12C127.115 27.648 127.283 28.308 127.283 29.1C127.283 30.036 127.055 31.08 126.599 32.232C126.143 33.36 125.567 34.452 124.871 35.508C125.303 35.748 125.759 35.868 126.239 35.868C126.623 35.868 127.055 35.796 127.535 35.652C128.015 35.484 128.483 35.208 128.939 34.824C129.419 34.44 129.803 33.924 130.091 33.276L130.523 33.636C130.043 34.764 129.359 35.568 128.471 36.048C127.607 36.504 126.779 36.732 125.987 36.732C125.675 36.732 125.375 36.708 125.087 36.66C124.799 36.588 124.523 36.492 124.259 36.372C123.443 37.452 122.543 38.352 121.559 39.072C120.599 39.792 119.663 40.152 118.751 40.152ZM124.043 34.86C124.643 33.972 125.135 33.048 125.519 32.088C125.927 31.104 126.131 30.18 126.131 29.316C126.131 28.62 126.023 28.116 125.807 27.804C125.615 27.468 125.363 27.3 125.051 27.3C124.571 27.3 124.079 27.648 123.575 28.344C123.071 29.04 122.819 29.916 122.819 30.972C122.819 31.668 122.915 32.376 123.107 33.096C123.323 33.792 123.635 34.38 124.043 34.86ZM146.299 40.116C145.459 40.116 144.847 39.852 144.463 39.324C144.079 38.82 143.887 38.208 143.887 37.488C143.887 36.888 143.971 36.288 144.139 35.688C144.331 35.088 144.511 34.5 144.679 33.924C144.871 33.348 144.967 32.832 144.967 32.376C144.967 31.896 144.859 31.56 144.643 31.368C144.427 31.176 144.187 31.08 143.923 31.08C143.323 31.08 142.663 31.548 141.943 32.484C141.247 33.42 140.335 34.74 139.207 36.444C138.823 37.02 138.499 37.608 138.235 38.208C137.971 38.784 137.719 39.312 137.479 39.792C137.287 39.792 137.047 39.768 136.759 39.72C136.471 39.672 136.207 39.588 135.967 39.468C135.751 39.372 135.643 39.24 135.643 39.072C135.643 38.904 135.751 38.508 135.967 37.884C136.207 37.236 136.471 36.492 136.759 35.652C137.071 34.788 137.335 33.924 137.551 33.06C137.791 32.172 137.911 31.416 137.911 30.792C137.911 30.384 137.839 30.06 137.695 29.82C137.575 29.556 137.347 29.424 137.011 29.424C136.483 29.424 135.847 29.748 135.103 30.396C134.359 31.02 133.591 31.848 132.799 32.88C132.007 33.912 131.251 35.052 130.531 36.3C129.835 37.524 129.271 38.748 128.839 39.972C128.623 39.972 128.359 39.936 128.047 39.864C127.735 39.792 127.471 39.696 127.255 39.576C127.015 39.456 126.895 39.336 126.895 39.216C126.895 39.072 127.027 38.652 127.291 37.956C127.531 37.236 127.819 36.384 128.155 35.4C128.467 34.392 128.743 33.372 128.983 32.34C129.247 31.308 129.379 30.396 129.379 29.604C129.523 29.436 129.751 29.268 130.063 29.1C130.375 28.932 130.699 28.848 131.035 28.848C131.371 28.848 131.611 28.932 131.755 29.1C131.923 29.268 132.007 29.496 132.007 29.784C132.007 30.096 131.911 30.636 131.719 31.404C131.551 32.148 131.335 32.976 131.071 33.888C131.551 33.12 132.091 32.34 132.691 31.548C133.315 30.732 133.963 29.988 134.635 29.316C135.307 28.644 135.979 28.104 136.651 27.696C137.347 27.264 138.019 27.048 138.667 27.048C139.411 27.048 139.915 27.324 140.179 27.876C140.467 28.404 140.611 29.04 140.611 29.784C140.611 30.384 140.539 31.02 140.395 31.692C140.275 32.34 140.131 32.952 139.963 33.528C139.795 34.08 139.639 34.524 139.495 34.86C139.999 33.948 140.551 33.072 141.151 32.232C141.775 31.368 142.447 30.672 143.167 30.144C143.887 29.592 144.655 29.316 145.471 29.316C146.239 29.316 146.767 29.544 147.055 30C147.367 30.456 147.523 30.996 147.523 31.62C147.523 32.244 147.415 32.928 147.199 33.672C146.983 34.416 146.755 35.136 146.515 35.832C146.299 36.528 146.191 37.128 146.191 37.632C146.191 37.944 146.263 38.232 146.407 38.496C146.575 38.736 146.863 38.856 147.271 38.856C147.943 38.856 148.567 38.556 149.143 37.956C149.743 37.332 150.295 36.588 150.799 35.724C151.303 34.836 151.735 33.984 152.095 33.168L152.527 33.672C152.143 34.68 151.651 35.688 151.051 36.696C150.451 37.68 149.743 38.496 148.927 39.144C148.135 39.792 147.259 40.116 146.299 40.116ZM164.128 42.132C163.384 42.132 162.676 42.024 162.004 41.808C161.332 41.616 160.756 41.184 160.276 40.512C160.516 39.36 160.804 38.124 161.14 36.804C161.5 35.46 161.884 34.092 162.292 32.7C162.7 31.284 163.108 29.904 163.516 28.56C163.948 27.192 164.356 25.92 164.74 24.744C165.124 23.568 165.472 22.536 165.784 21.648C166.096 20.76 166.336 20.088 166.504 19.632C166.576 19.44 166.696 19.164 166.864 18.804C167.032 18.42 167.236 18.036 167.476 17.652C167.716 17.268 167.992 16.944 168.304 16.68C168.616 16.392 168.952 16.248 169.312 16.248C169.648 16.248 169.984 16.368 170.32 16.608C169.576 18.336 168.82 20.244 168.052 22.332C167.308 24.42 166.588 26.58 165.892 28.812C165.196 31.02 164.56 33.18 163.984 35.292C163.408 37.404 162.928 39.324 162.544 41.052C162.88 41.1 163.156 41.136 163.372 41.16C163.612 41.184 163.852 41.196 164.092 41.196C165.628 41.196 167.104 40.836 168.52 40.116C169.96 39.42 171.292 38.46 172.516 37.236C173.764 35.988 174.856 34.572 175.792 32.988C176.728 31.38 177.448 29.688 177.952 27.912C178.48 26.112 178.744 24.324 178.744 22.548C178.744 20.604 178.432 19.008 177.808 17.76C177.184 16.488 176.32 15.552 175.216 14.952C174.112 14.352 172.828 14.052 171.364 14.052C169.804 14.052 168.4 14.364 167.152 14.988C165.904 15.612 164.92 16.452 164.2 17.508C163.48 18.564 163.12 19.752 163.12 21.072C163.12 21.36 163.132 21.612 163.156 21.828C163.204 22.044 163.252 22.236 163.3 22.404C162.508 22.404 161.944 22.212 161.608 21.828C161.296 21.42 161.14 20.94 161.14 20.388C161.14 19.548 161.428 18.708 162.004 17.868C162.604 17.004 163.42 16.212 164.452 15.492C165.508 14.772 166.72 14.196 168.088 13.764C169.456 13.308 170.908 13.08 172.444 13.08C174.604 13.08 176.332 13.524 177.628 14.412C178.948 15.276 179.908 16.452 180.508 17.94C181.108 19.428 181.408 21.096 181.408 22.944C181.408 25.032 181.084 27.036 180.436 28.956C179.788 30.852 178.888 32.604 177.736 34.212C176.608 35.796 175.312 37.188 173.848 38.388C172.384 39.564 170.812 40.476 169.132 41.124C167.476 41.796 165.808 42.132 164.128 42.132ZM184.161 40.584C182.697 40.584 181.593 40.176 180.849 39.36C180.129 38.568 179.769 37.584 179.769 36.408C179.769 35.328 180.033 34.188 180.561 32.988C181.113 31.788 181.833 30.66 182.721 29.604C183.633 28.548 184.629 27.696 185.709 27.048C186.789 26.376 187.857 26.04 188.913 26.04C189.465 26.04 189.969 26.184 190.425 26.472C190.905 26.76 191.145 27.348 191.145 28.236C191.145 29.148 190.869 30.012 190.317 30.828C189.789 31.62 189.081 32.328 188.193 32.952C187.329 33.576 186.369 34.092 185.313 34.5C184.281 34.884 183.249 35.124 182.217 35.22C182.169 35.46 182.133 35.688 182.109 35.904C182.085 36.12 182.073 36.324 182.073 36.516C182.073 36.876 182.109 37.236 182.181 37.596C182.277 37.956 182.433 38.292 182.649 38.604C182.865 38.892 183.153 39.12 183.513 39.288C183.897 39.456 184.365 39.54 184.917 39.54C185.949 39.54 186.969 39.252 187.977 38.676C188.985 38.076 189.921 37.296 190.785 36.336C191.649 35.376 192.381 34.32 192.981 33.168L193.413 33.492C192.765 34.932 191.937 36.18 190.929 37.236C189.945 38.292 188.865 39.108 187.689 39.684C186.537 40.284 185.361 40.584 184.161 40.584ZM182.397 34.536C183.045 34.32 183.777 34.008 184.593 33.6C185.409 33.168 186.189 32.664 186.933 32.088C187.701 31.512 188.325 30.876 188.805 30.18C189.309 29.484 189.561 28.752 189.561 27.984C189.561 27.72 189.513 27.516 189.417 27.372C189.321 27.228 189.117 27.156 188.805 27.156C188.229 27.156 187.617 27.384 186.969 27.84C186.321 28.272 185.697 28.848 185.097 29.568C184.497 30.288 183.957 31.08 183.477 31.944C182.997 32.808 182.637 33.672 182.397 34.536ZM197.23 39.936C196.414 39.936 195.766 39.72 195.286 39.288C194.83 38.856 194.602 38.292 194.602 37.596C194.602 36.876 194.77 36.12 195.106 35.328C195.442 34.536 195.766 33.756 196.078 32.988C196.414 32.196 196.582 31.488 196.582 30.864C196.582 30.096 196.354 29.532 195.898 29.172C195.466 28.788 195.022 28.44 194.566 28.128C194.014 29.544 193.438 30.888 192.838 32.16C192.238 33.432 191.746 34.392 191.362 35.04L191.038 34.428C191.374 33.804 191.806 32.892 192.334 31.692C192.886 30.492 193.426 29.124 193.954 27.588C193.714 27.348 193.594 27.06 193.594 26.724C193.594 26.004 193.798 25.416 194.206 24.96C194.614 24.504 194.914 24.276 195.106 24.276C195.37 24.276 195.514 24.396 195.538 24.636C195.586 24.852 195.61 25.02 195.61 25.14C195.61 25.26 195.538 25.5 195.394 25.86C195.274 26.196 195.214 26.4 195.214 26.472C195.214 26.808 195.394 27.12 195.754 27.408C196.138 27.672 196.57 27.984 197.05 28.344C197.53 28.68 197.95 29.1 198.31 29.604C198.694 30.084 198.886 30.708 198.886 31.476C198.886 32.196 198.73 32.928 198.418 33.672C198.13 34.416 197.83 35.124 197.518 35.796C197.23 36.468 197.086 37.056 197.086 37.56C197.086 37.992 197.194 38.28 197.41 38.424C197.626 38.568 197.878 38.64 198.166 38.64C198.742 38.64 199.33 38.46 199.93 38.1C200.554 37.74 201.154 37.284 201.73 36.732C202.306 36.18 202.822 35.604 203.278 35.004C203.734 34.38 204.07 33.804 204.286 33.276L204.754 33.636C204.298 34.644 203.674 35.64 202.882 36.624C202.09 37.584 201.202 38.376 200.218 39C199.258 39.624 198.262 39.936 197.23 39.936ZM206.145 40.584C204.681 40.584 203.577 40.176 202.833 39.36C202.113 38.568 201.753 37.584 201.753 36.408C201.753 35.328 202.017 34.188 202.545 32.988C203.097 31.788 203.817 30.66 204.705 29.604C205.617 28.548 206.613 27.696 207.693 27.048C208.773 26.376 209.841 26.04 210.897 26.04C211.449 26.04 211.953 26.184 212.409 26.472C212.889 26.76 213.129 27.348 213.129 28.236C213.129 29.148 212.853 30.012 212.301 30.828C211.773 31.62 211.065 32.328 210.177 32.952C209.313 33.576 208.353 34.092 207.297 34.5C206.265 34.884 205.233 35.124 204.201 35.22C204.153 35.46 204.117 35.688 204.093 35.904C204.069 36.12 204.057 36.324 204.057 36.516C204.057 36.876 204.093 37.236 204.165 37.596C204.261 37.956 204.417 38.292 204.633 38.604C204.849 38.892 205.137 39.12 205.497 39.288C205.881 39.456 206.349 39.54 206.901 39.54C207.933 39.54 208.953 39.252 209.961 38.676C210.969 38.076 211.905 37.296 212.769 36.336C213.633 35.376 214.365 34.32 214.965 33.168L215.397 33.492C214.749 34.932 213.921 36.18 212.913 37.236C211.929 38.292 210.849 39.108 209.673 39.684C208.521 40.284 207.345 40.584 206.145 40.584ZM204.381 34.536C205.029 34.32 205.761 34.008 206.577 33.6C207.393 33.168 208.173 32.664 208.917 32.088C209.685 31.512 210.309 30.876 210.789 30.18C211.293 29.484 211.545 28.752 211.545 27.984C211.545 27.72 211.497 27.516 211.401 27.372C211.305 27.228 211.101 27.156 210.789 27.156C210.213 27.156 209.601 27.384 208.953 27.84C208.305 28.272 207.681 28.848 207.081 29.568C206.481 30.288 205.941 31.08 205.461 31.944C204.981 32.808 204.621 33.672 204.381 34.536ZM216.766 40.836C215.638 40.836 214.738 40.584 214.066 40.08C213.418 39.6 212.962 39 212.698 38.28C212.41 37.56 212.266 36.84 212.266 36.12C212.266 35.4 212.362 34.848 212.554 34.464C212.746 34.08 212.974 33.792 213.238 33.6C213.526 33.408 213.79 33.264 214.03 33.168C214.294 33.072 214.474 32.976 214.57 32.88C215.29 32.088 215.95 31.26 216.55 30.396C217.15 29.532 217.678 28.62 218.134 27.66V27.228C218.134 26.34 218.278 25.716 218.566 25.356C218.878 24.972 219.202 24.78 219.538 24.78C219.73 24.78 219.874 24.828 219.97 24.924C220.066 25.02 220.114 25.128 220.114 25.248C220.114 25.368 220.078 25.56 220.006 25.824C219.934 26.088 219.898 26.424 219.898 26.832C219.898 27.624 220.054 28.488 220.366 29.424C220.678 30.336 220.99 31.308 221.302 32.34C221.614 33.348 221.77 34.404 221.77 35.508C221.77 35.82 221.746 36.132 221.698 36.444C221.674 36.732 221.626 37.008 221.554 37.272C222.394 37.128 223.186 36.756 223.93 36.156C224.674 35.532 225.394 34.548 226.09 33.204L226.414 33.564C225.958 34.884 225.274 35.892 224.362 36.588C223.45 37.26 222.454 37.68 221.374 37.848C220.99 38.88 220.378 39.636 219.538 40.116C218.722 40.596 217.798 40.836 216.766 40.836ZM216.838 39.576C217.126 39.576 217.51 39.48 217.99 39.288C218.47 39.096 218.842 38.604 219.106 37.812C218.098 37.62 217.198 37.224 216.406 36.624C215.638 36.024 215.062 35.424 214.678 34.824C214.15 34.848 213.886 35.268 213.886 36.084C213.886 36.948 214.138 37.752 214.642 38.496C215.17 39.216 215.902 39.576 216.838 39.576ZM219.286 37.236C219.334 36.996 219.37 36.744 219.394 36.48C219.418 36.216 219.43 35.904 219.43 35.544C219.43 34.416 219.286 33.3 218.998 32.196C218.734 31.068 218.506 30.012 218.314 29.028C217.762 29.94 217.174 30.816 216.55 31.656C215.95 32.472 215.374 33.156 214.822 33.708C215.182 34.476 215.734 35.196 216.478 35.868C217.246 36.54 218.182 36.996 219.286 37.236ZM228.024 40.584C226.56 40.584 225.456 40.176 224.712 39.36C223.992 38.568 223.632 37.584 223.632 36.408C223.632 35.328 223.896 34.188 224.424 32.988C224.976 31.788 225.696 30.66 226.584 29.604C227.496 28.548 228.492 27.696 229.572 27.048C230.652 26.376 231.72 26.04 232.776 26.04C233.328 26.04 233.832 26.184 234.288 26.472C234.768 26.76 235.008 27.348 235.008 28.236C235.008 29.148 234.732 30.012 234.18 30.828C233.652 31.62 232.944 32.328 232.056 32.952C231.192 33.576 230.232 34.092 229.176 34.5C228.144 34.884 227.112 35.124 226.08 35.22C226.032 35.46 225.996 35.688 225.972 35.904C225.948 36.12 225.936 36.324 225.936 36.516C225.936 36.876 225.972 37.236 226.044 37.596C226.14 37.956 226.296 38.292 226.512 38.604C226.728 38.892 227.016 39.12 227.376 39.288C227.76 39.456 228.228 39.54 228.78 39.54C229.812 39.54 230.832 39.252 231.84 38.676C232.848 38.076 233.784 37.296 234.648 36.336C235.512 35.376 236.244 34.32 236.844 33.168L237.276 33.492C236.628 34.932 235.8 36.18 234.792 37.236C233.808 38.292 232.728 39.108 231.552 39.684C230.4 40.284 229.224 40.584 228.024 40.584ZM226.26 34.536C226.908 34.32 227.64 34.008 228.456 33.6C229.272 33.168 230.052 32.664 230.796 32.088C231.564 31.512 232.188 30.876 232.668 30.18C233.172 29.484 233.424 28.752 233.424 27.984C233.424 27.72 233.376 27.516 233.28 27.372C233.184 27.228 232.98 27.156 232.668 27.156C232.092 27.156 231.48 27.384 230.832 27.84C230.184 28.272 229.56 28.848 228.96 29.568C228.36 30.288 227.82 31.08 227.34 31.944C226.86 32.808 226.5 33.672 226.26 34.536Z" fill="#050443"/>
</svg>
