<svg width="873" height="900" viewBox="0 0 873 900" fill="none" xmlns="http://www.w3.org/2000/svg">
<g opacity="0.2" filter="url(#filter0_d)">
<path d="M266.157 -32.6599C281.99 -25.4442 294.021 -15.7123 302.249 -3.46395C310.878 7.90479 316.74 26.511 319.835 52.3547L355.468 428.719C358.15 467.122 361.918 499.647 366.773 526.292C371.627 552.937 376.965 575.023 382.788 592.549C389.892 609.597 397.958 623.365 406.988 633.854C416.898 644.744 428.45 653.195 441.644 659.209C475.07 674.442 506.793 672.433 536.813 653.181C567.233 633.051 591.463 603.194 609.502 563.61L747.802 260.138C764.639 223.194 784.492 209.933 807.363 220.356C828.474 229.976 827.404 260.296 804.153 311.315L511.919 952.564C493.479 993.027 467.546 1005.64 434.12 990.409L413.009 980.788C397.176 973.573 384.026 962.8 373.56 948.469C363.494 933.259 357.471 916.172 355.489 897.21L306.497 438.271C303.169 405.947 295.637 377.019 283.902 351.487C272.567 325.075 256.784 307.259 236.553 298.039C200.488 281.603 167.407 281.931 137.309 299.022C108.492 315.634 83.4608 347.251 62.2147 393.871L-66.4647 676.232C-74.8829 694.704 -84.2977 709.535 -94.7089 720.725C-103.84 731.437 -115.882 733.385 -130.835 726.57C-141.391 721.76 -146.902 712.874 -147.37 699.913C-147.436 686.073 -140.855 664.639 -127.626 635.611L164.608 -5.63857C183.048 -46.1015 205.462 -60.3199 231.851 -48.2938L266.157 -32.6599Z" fill="#8491A5" fill-opacity="0.5"/>
</g>
<defs>
<filter id="filter0_d" x="-147.37" y="-52.4269" width="1019.8" height="1084.09" filterUnits="userSpaceOnUse" color-interpolation-filters="sRGB">
<feFlood flood-opacity="0" result="BackgroundImageFix"/>
<feColorMatrix in="SourceAlpha" type="matrix" values="0 0 0 0 0 0 0 0 0 0 0 0 0 0 0 0 0 0 127 0"/>
<feOffset dx="35" dy="20"/>
<feGaussianBlur stdDeviation="7.5"/>
<feColorMatrix type="matrix" values="0 0 0 0 0.188368 0 0 0 0 0.603531 0 0 0 0 0.904167 0 0 0 0.4 0"/>
<feBlend mode="normal" in2="BackgroundImageFix" result="effect1_dropShadow"/>
<feBlend mode="normal" in="SourceGraphic" in2="effect1_dropShadow" result="shape"/>
</filter>
</defs>
</svg>
