<svg width="40" height="41" viewBox="0 0 40 41" fill="none" xmlns="http://www.w3.org/2000/svg">
<path d="M36.0218 10.2303C34.8385 10.7506 33.5507 11.125 32.2243 11.2709C33.6014 10.437 34.6327 9.11956 35.1246 7.56581C33.8324 8.34934 32.4167 8.89877 30.9404 9.18972C30.3233 8.5174 29.5771 7.9818 28.7481 7.61629C27.9191 7.25078 27.0251 7.0632 26.1219 7.06523C22.4674 7.06523 19.5284 10.0844 19.5284 13.7895C19.5284 14.3098 19.5902 14.8301 19.6908 15.3306C14.2187 15.039 9.33838 12.3745 6.09383 8.29499C5.50264 9.32419 5.19283 10.496 5.19665 11.6887C5.19665 14.022 6.36066 16.0795 8.13569 17.2896C7.08964 17.2476 6.06809 16.9545 5.15411 16.4343V16.517C5.15411 19.7846 7.42027 22.4924 10.4405 23.1152C9.87344 23.2653 9.29007 23.3421 8.70417 23.3438C8.27491 23.3438 7.86886 23.3004 7.45894 23.2413C8.29425 25.9058 10.7267 27.8411 13.6232 27.9041C11.357 29.7133 8.51854 30.7775 5.43641 30.7775C4.88341 30.7775 4.37294 30.7578 3.84314 30.6947C6.76672 32.6064 10.2356 33.71 13.9712 33.71C26.0987 33.71 32.7347 23.4699 32.7347 14.5817C32.7347 14.2901 32.7347 13.9984 32.7154 13.7067C33.9993 12.7489 35.1246 11.5625 36.0218 10.2303Z" fill="#5E5E5E"/>
</svg>
